<svg width="25" height="25" viewBox="0 0 20 16" fill="none" xmlns="http://www.w3.org/2000/svg">
<path d="M16.94 3.91001C16.8212 3.05315 16.3883 2.27097 15.7254 1.71516C15.0626 1.15935 14.2169 0.869538 13.3524 0.901924C12.488 0.93431 11.6664 1.28659 11.0469 1.89044C10.4275 2.49428 10.0544 3.30666 10 4.17001C6.46 5.63001 3 2.00001 3 2.00001C2 8.00001 5 10.75 5 10.75C3.64 12 1 12 1 12C1 12 2.58 15 9.58 15C16.58 15 17 7.00001 17 7.00001C17.6594 6.76006 18.2171 6.30214 18.5808 5.70203C18.9445 5.10192 19.0924 4.39561 19 3.70001C18.3255 3.86009 17.6329 3.93069 16.94 3.91001Z" stroke="white" stroke-width="1.5" stroke-linecap="round" stroke-linejoin="round"/>
</svg>
